G75*
%MOIN*%
%OFA0B0*%
%FSLAX25Y25*%
%IPPOS*%
%LPD*%
%AMOC8*
5,1,8,0,0,1.08239X$1,22.5*
%
%ADD10OC8,0.09300*%
%ADD11C,0.06800*%
%ADD12R,0.05524X0.12611*%
%ADD13R,0.12611X0.05524*%
D10*
X0163000Y0033000D03*
X0183000Y0033000D03*
X0203000Y0043000D03*
X0203000Y0063000D03*
X0203000Y0073000D03*
X0203000Y0083000D03*
X0193000Y0103000D03*
X0193000Y0113000D03*
X0193000Y0123000D03*
D11*
X0161000Y0113000D02*
X0155000Y0113000D01*
X0155000Y0103000D02*
X0161000Y0103000D01*
X0161000Y0093000D02*
X0155000Y0093000D01*
X0158000Y0056000D02*
X0158000Y0050000D01*
X0168000Y0050000D02*
X0168000Y0056000D01*
X0148000Y0056000D02*
X0148000Y0050000D01*
X0148000Y0150000D02*
X0148000Y0156000D01*
X0158000Y0156000D02*
X0158000Y0150000D01*
X0168000Y0150000D02*
X0168000Y0156000D01*
D12*
X0060165Y0070323D03*
X0068039Y0070323D03*
X0075913Y0070323D03*
X0083787Y0070323D03*
X0091661Y0070323D03*
X0099535Y0070323D03*
X0107409Y0070323D03*
X0115283Y0070323D03*
X0115283Y0134890D03*
X0107409Y0134890D03*
X0099535Y0134890D03*
X0091661Y0134890D03*
X0083787Y0134890D03*
X0075913Y0134890D03*
X0068039Y0134890D03*
X0060165Y0134890D03*
D13*
X0123551Y0123472D03*
X0123551Y0115598D03*
X0123551Y0107724D03*
X0123551Y0099850D03*
X0123551Y0091976D03*
X0123551Y0084102D03*
M02*
